name Walk9.mot
datacolumns 19
datarows 12
range 3.24300000 3.25400000
endheader

                time	   L_ground_force_vx	   L_ground_force_vy	   L_ground_force_vz	   L_ground_force_px	   L_ground_force_py	   L_ground_force_pz	   R_ground_force_vx	   R_ground_force_vy	   R_ground_force_vz	   R_ground_force_px	   R_ground_force_py	   R_ground_force_pz	   L_ground_torque_x	   L_ground_torque_y	   L_ground_torque_z	   R_ground_torque_x	   R_ground_torque_y	   R_ground_torque_z	
          3.24300000	          0.00000000	          0.00000000	          0.00000000	          0.00000000	          0.00000000	          0.00000000	        -16.46811130	        750.84185024	        -51.89768819	          0.31667570	          0.00000000	          0.13581703	          0.00000000	          0.00000000	          0.00000000	          0.00000000	          6.64420733	          0.00000000	
          3.24400000	          0.00000000	          0.00000000	          0.00000000	          0.00000000	          0.00000000	          0.00000000	        -16.27369352	        749.75588395	        -51.78600929	          0.31689769	          0.00000000	          0.13584378	          0.00000000	          0.00000000	          0.00000000	          0.00000000	          6.59839330	          0.00000000	
          3.24500000	          0.00000000	          0.00000000	          0.00000000	          0.00000000	          0.00000000	          0.00000000	        -16.10010815	        748.69246463	        -51.67099845	          0.31714309	          0.00000000	          0.13589190	          0.00000000	          0.00000000	          0.00000000	          0.00000000	          6.53273968	          0.00000000	
          3.24600000	          0.00000000	          0.00000000	          0.00000000	          0.00000000	          0.00000000	          0.00000000	        -15.93914082	        747.76960368	        -51.54615708	          0.31744429	          0.00000000	          0.13596616	          0.00000000	          0.00000000	          0.00000000	          0.00000000	          6.45061207	          0.00000000	
          3.24700000	          0.00000000	          0.00000000	          0.00000000	          0.00000000	          0.00000000	          0.00000000	        -15.77834691	        747.00993998	        -51.41558429	          0.31779858	          0.00000000	          0.13605055	          0.00000000	          0.00000000	          0.00000000	          0.00000000	          6.36404113	          0.00000000	
          3.24800000	          0.00000000	          0.00000000	          0.00000000	          0.00000000	          0.00000000	          0.00000000	        -15.60677130	        746.33331116	        -51.28409651	          0.31817616	          0.00000000	          0.13612446	          0.00000000	          0.00000000	          0.00000000	          0.00000000	          6.28722227	          0.00000000	
          3.24900000	          0.00000000	          0.00000000	          0.00000000	          0.00000000	          0.00000000	          0.00000000	        -15.41410742	        745.64377137	        -51.15332213	          0.31854977	          0.00000000	          0.13618250	          0.00000000	          0.00000000	          0.00000000	          0.00000000	          6.23085440	          0.00000000	
          3.25000000	          0.00000000	          0.00000000	          0.00000000	          0.00000000	          0.00000000	          0.00000000	        -15.19764227	        744.88853989	        -51.02829408	          0.31890927	          0.00000000	          0.13623510	          0.00000000	          0.00000000	          0.00000000	          0.00000000	          6.19731054	          0.00000000	
          3.25100000	          0.00000000	          0.00000000	          0.00000000	          0.00000000	          0.00000000	          0.00000000	        -14.96539535	        744.06487341	        -50.91995994	          0.31924653	          0.00000000	          0.13629666	          0.00000000	          0.00000000	          0.00000000	          0.00000000	          6.17885225	          0.00000000	
          3.25200000	          0.00000000	          0.00000000	          0.00000000	          0.00000000	          0.00000000	          0.00000000	        -14.72925444	        743.23062387	        -50.83701616	          0.31955174	          0.00000000	          0.13638438	          0.00000000	          0.00000000	          0.00000000	          0.00000000	          6.16115384	          0.00000000	
          3.25300000	          0.00000000	          0.00000000	          0.00000000	          0.00000000	          0.00000000	          0.00000000	        -14.50192479	        742.48404744	        -50.77682454	          0.31983819	          0.00000000	          0.13651206	          0.00000000	          0.00000000	          0.00000000	          0.00000000	          6.12936682	          0.00000000	
          3.25400000	          0.00000000	          0.00000000	          0.00000000	          0.00000000	          0.00000000	          0.00000000	        -14.29540695	        741.88963019	        -50.72564733	          0.32013453	          0.00000000	          0.13667174	          0.00000000	          0.00000000	          0.00000000	          0.00000000	          6.07544522	          0.00000000	
